# xmcd
# Copyright (c) 1998 CDDB Inc.
#
# Track frame offsets:
#	150
#	39120
#	60992
#	107270
#	123407
#	146052
#	169377
#	185342
#	205530
#	219570
#	231040
#
# Disc length: 3842 seconds
#
# Revision: 1
# Processed by: cddbd v1.4b41PL1 Copyright (c) Steve Scherf et al.
# Submitted via: audiograbber 1.70
#
DISCID=8e0f000b
DTITLE=Al Henderson Quartet - Dinosaur Dig
DYEAR=1900
DGENRE=
TTITLE0=Mingus
TTITLE1=Dinosaur Dig
TTITLE2=Andalusian Landscape
TTITLE3=Zot
TTITLE4=Cat and Mouse
TTITLE5=Mary's Tune
TTITLE6=Fire and Ice
TTITLE7=The Beggar's Promenade
TTITLE8=Hadronic Interactions
TTITLE9=Time for Trevor
TTITLE10=Monk in Space
EXTD=
EXTT0=
EXTT1=
EXTT2=
EXTT3=
EXTT4=
EXTT5=
EXTT6=
EXTT7=
EXTT8=
EXTT9=
EXTT10=
PLAYORDER=
